<svg width="16" height="14" viewBox="0 0 16 14" fill="none" xmlns="http://www.w3.org/2000/svg">
<path fill-rule="evenodd" clip-rule="evenodd" d="M4 3.66659C4 2.56202 4.89543 1.66659 6 1.66659C7.10457 1.66659 8 2.56202 8 3.66659C8 4.77115 7.10457 5.66659 6 5.66659C4.89543 5.66659 4 4.77115 4 3.66659ZM6 0.333252C4.15905 0.333252 2.66667 1.82564 2.66667 3.66659C2.66667 5.50753 4.15905 6.99992 6 6.99992C7.84095 6.99992 9.33333 5.50753 9.33333 3.66659C9.33333 1.82564 7.84095 0.333252 6 0.333252ZM3.33333 8.33325C2.44928 8.33325 1.60143 8.68444 0.976311 9.30956C0.35119 9.93468 0 10.7825 0 11.6666V12.9999C0 13.3681 0.298477 13.6666 0.666667 13.6666C1.03486 13.6666 1.33333 13.3681 1.33333 12.9999V11.6666C1.33333 11.1362 1.54405 10.6274 1.91912 10.2524C2.29419 9.8773 2.8029 9.66659 3.33333 9.66659H8.66667C9.1971 9.66659 9.70581 9.8773 10.0809 10.2524C10.456 10.6274 10.6667 11.1362 10.6667 11.6666V12.9999C10.6667 13.3681 10.9651 13.6666 11.3333 13.6666C11.7015 13.6666 12 13.3681 12 12.9999V11.6666C12 10.7825 11.6488 9.93468 11.0237 9.30956C10.3986 8.68444 9.55072 8.33325 8.66667 8.33325H3.33333ZM12.6878 8.91992C12.7799 8.56342 13.1435 8.34904 13.5 8.44109C14.2151 8.62573 14.8486 9.04264 15.3011 9.62635C15.7536 10.2101 15.9994 10.9275 16 11.6661V11.6666V12.9999C16 13.3681 15.7015 13.6666 15.3333 13.6666C14.9651 13.6666 14.6667 13.3681 14.6667 12.9999V11.6668C14.6663 11.2238 14.5188 10.7934 14.2474 10.4432C13.9759 10.093 13.5957 9.84287 13.1667 9.73209C12.8102 9.64004 12.5958 9.27642 12.6878 8.91992ZM10.832 0.440755C10.4753 0.34943 10.1122 0.564545 10.0208 0.921229C9.92951 1.27791 10.1446 1.6411 10.5013 1.73242C10.9315 1.84257 11.3128 2.09277 11.5851 2.44358C11.8574 2.79438 12.0052 3.22584 12.0052 3.66992C12.0052 4.11401 11.8574 4.54546 11.5851 4.89627C11.3128 5.24707 10.9315 5.49727 10.5013 5.60742C10.1446 5.69875 9.92951 6.06193 10.0208 6.41861C10.1122 6.7753 10.4753 6.99041 10.832 6.89909C11.549 6.7155 12.1846 6.2985 12.6384 5.71383C13.0922 5.12916 13.3386 4.41006 13.3386 3.66992C13.3386 2.92978 13.0922 2.21069 12.6384 1.62601C12.1846 1.04134 11.549 0.624339 10.832 0.440755Z" fill="#222222"/>
</svg>
